<svg aria-hidden="true" style="position: absolute; width: 0; height: 0; overflow: hidden;" version="1.1" xmlns="http://www.w3.org/2000/svg" xmlns:xlink="http://www.w3.org/1999/xlink">
<defs>
<symbol id="icon-arrow" viewBox="0 0 48 32">
<path d="M48 16c0 8.836-7.164 16-16 16s-16-7.164-16-16c0-8.837 7.164-16 16-16s16 7.163 16 16z"></path>
<path d="M32.231 17.2h-32.231v-2.4h32.23c-1.995-1.309-3.738-2.954-5.209-4.804-0.613-0.768-1.245-1.638-1.73-2.492-0.461-0.811-0.891-1.781-0.891-2.704h2.4c0 0.265 0.156 0.774 0.578 1.519 0.398 0.701 0.946 1.461 1.52 2.181l0.001 0.002c1.449 1.823 3.17 3.399 5.128 4.596 0.751 0.459 1.557 0.893 2.339 1.21 0.795 0.322 1.488 0.492 2.034 0.492v2.4c-0.545 0-1.239 0.169-2.034 0.492-0.782 0.317-1.588 0.752-2.338 1.21-1.959 1.199-3.68 2.776-5.129 4.596l-0 0c-0.574 0.72-1.122 1.482-1.52 2.184-0.423 0.745-0.578 1.255-0.578 1.518h-2.4c0-0.921 0.431-1.891 0.891-2.702 0.485-0.855 1.117-1.726 1.73-2.495 1.471-1.848 3.214-3.492 5.209-4.803z"></path>
</symbol>
</defs>
</svg>
